<?xml version="1.0" standalone="no"?><!DOCTYPE svg PUBLIC "-//W3C//DTD SVG 1.1//EN" "http://www.w3.org/Graphics/SVG/1.1/DTD/svg11.dtd"><svg width="100%" height="100%" viewBox="0 0 50 50" version="1.1" xmlns="http://www.w3.org/2000/svg" xmlns:xlink="http://www.w3.org/1999/xlink" xml:space="preserve" style="fill-rule:evenodd;clip-rule:evenodd;stroke-linejoin:round;stroke-miterlimit:1.41421;"><g><path id="WomanHead" d="M41.497,21.207c1.346,-9.003 -4.869,-17.406 -13.872,-18.753c-9.003,-1.346 -17.406,4.869 -18.752,13.872l-2.157,14.418c-1.347,9.003 4.869,17.405 13.872,18.752c9.003,1.347 17.405,-4.869 18.752,-13.872l2.157,-14.417Z" style="fill:#e0c0b4;"/><path d="M10.015,38.683l18.701,0.134c-0.751,3.782 -4.686,6.646 -9.398,6.613c-4.712,-0.034 -8.606,-2.955 -9.303,-6.747Z" style="fill:#fff;"/><g id="WomanHair"><path d="M10.985,16.869c-4.686,-0.605 -3.719,-7.469 0.063,-11.926c3.781,-4.457 16.284,-7.717 24.924,-0.553c8.641,7.163 11.432,26.125 3.916,24.921c-7.517,-1.204 0.971,-12.533 -6.826,-17.077c-7.798,-4.545 -15.802,5.445 -22.077,4.635Z" style="fill:#5f261d;"/></g></g></svg>